<svg xmlns="http://www.w3.org/2000/svg" viewBox="0 0 147.04 128.38"><defs><style>.cls-1{fill:#e9292a;}.cls-2{fill:#2a1212;}.cls-3{fill:#fff;}.cls-4{fill:#fbe2d1;}.cls-5{fill:#ae2225;}.cls-6{fill:#ffcd74;}.cls-7{fill:#b9bbbd;}.cls-8,.cls-9{fill:#dedbee;}.cls-8{opacity:0.23;}</style></defs><title>logo</title><g id="Ebene_2" data-name="Ebene 2"><g id="Layer_3" data-name="Layer 3"><path class="cls-1" d="M124.35,97.45s1.43,4-6.31,5.06l1.24.57s-1,2.29-2,2.58-8,.19-10.31-1a29.73,29.73,0,0,1-6.21-4.11s-5.25-1-5.35-1.62c0,0-3.53-20.54-20.72-39.25l-.29,6.49A69.4,69.4,0,0,0,63.51,77.93s14.35,1.61,25.08,16.72l.87,1.27C78.44,90,55.87,84,55.87,84S53.2,76.53,54.15,72.9s6.12-16.35,6.12-16.35c-13,7.6-25.1,25.79-30.42,34.53-.45-.65-.89-1.3-1.32-2A79.85,79.85,0,0,1,19.93,71c-.85-2.53-1.61-5.15-2.27-7.84a59.56,59.56,0,0,1,23.19-18c-4.59,3.52-12,11.38-12,11.38,28.63-9,52,.74,54.53,1.84l.21.1h0c-1-1.37-5.09-6.65-5.09-6.65,7-4.64,8.93-12.35,9.48-16.55,1.73.06,12.4.91,17.13,13.18,0,0-1-8-3.06-10.7s7.07,1.91,9.94,4.11,1.52,4.87,2.29,6.59,5.35,7.64,5.35,7.64-2.49,5.15-3.44,5.73c0,0-3-.86-4.39-2.38a19.88,19.88,0,0,0,2.47,4A9.81,9.81,0,0,1,112,62.08a8.9,8.9,0,0,0,1.62,2.13,3.88,3.88,0,0,0-3.34,2.35c.16-.09,3.89-2.27,5.73,0s5.21,11.3,3.69,21.52c0,0,1.1-1,1.79-4.08,0,0,1.15.9,2.3,2s2.31,2.44,2.31,3.3c0,1.72-.86,6.3-5.16,7.26A13.8,13.8,0,0,0,124.35,97.45Z"/><path class="cls-1" d="M142.92,33a48.6,48.6,0,0,1-21,19.82c-1.41-2-3.23-4.15-3.59-5.94a26.87,26.87,0,0,1-.45-3.38C118,43.45,135.29,42.59,142.92,33Z"/><path class="cls-1" d="M77.07,38.2l6.82-.76C80.45,52,74.72,51.83,74.72,51.83s-9.17-4.33-13.88-9.68S58.16,34,58.16,34C80.58,8.28,120,17,120,17,90,19.51,77.07,38.2,77.07,38.2Z"/><path class="cls-2" d="M89.46,95.92a19.94,19.94,0,0,0-3.29,1.27c-3.55,1.66-9.7,5.3-17,12.85l-.11.06-.72.35-.41.19-.75.35c-.5.23-1,.45-1.51.66-.21.1-.43.18-.64.27l-.42.17-.79.31c-1.11.43-2.23.82-3.36,1.19l-.76-.25c-.78-4.53-2.82-11-7.77-19.5a39.38,39.38,0,0,1,3,16,56.61,56.61,0,0,0-5-10.62A63.51,63.51,0,0,1,51.57,110l-.84-.43-.56-.3a2.68,2.68,0,0,1-.33-.18l-.64-.35q-.8-.45-1.59-.93l-.77-.47-.65-.41-.25-.17-.59-.38q-.91-.61-1.8-1.26l-.71-.53q-.57-.42-1.14-.87c-.25-.2-.5-.39-.74-.6s-.65-.53-1-.8l-.77-.67,0,0-.84-.76-.07-.07-.77-.72-.83-.81L36,98.47q-.91-1-1.8-2L33.68,96l-.41-.48c-.48-.57-1-1.15-1.41-1.73L31.29,93l-.55-.74c-.3-.4-.59-.81-.89-1.22,5.32-8.74,17.44-26.93,30.42-34.53,0,0-5.16,12.73-6.12,16.35S55.87,84,55.87,84s21.22,5.27,32.24,11.18C88.58,95.41,89,95.67,89.46,95.92Z"/><path class="cls-2" d="M92.55,106.74l-1.82-.43L90,104.62c-.62-1.35-1.27-2.61-2-3.81a61.44,61.44,0,0,1-16.52,12.35,66.79,66.79,0,0,1-11,4.43q-2.19-.66-4.26-1.44l-.64-.25A62.29,62.29,0,0,1,25.33,91.2a83.22,83.22,0,0,1-9-19A119.72,119.72,0,0,1,10.74,44a128.76,128.76,0,0,1-.34-15.32c15.27-14.26,50.05-18.3,50.05-18.3s5.94.69,14,2.51A70.9,70.9,0,0,1,95.6,8.41a131.62,131.62,0,0,0-13.23-4.2A162.07,162.07,0,0,0,61.64.14L60.45,0l-1.2.14A162.07,162.07,0,0,0,38.52,4.21C22.78,8.35,11,14.05,3.36,21.14L.22,24.07.09,28.36v.26A136.75,136.75,0,0,0,5.81,73.29a90.2,90.2,0,0,0,15.83,30.33l1,1.16a72.85,72.85,0,0,0,9,8.88h0a73.7,73.7,0,0,0,25.89,13.8l3,.92,3-.92a72.79,72.79,0,0,0,32.43-20Z"/><path class="cls-3" d="M58.16,34S79.67,14.16,120,17c0,0-8.93-4.45-15.93-3.31s-36,1.92-48.26,19.3S58.16,34,58.16,34Z"/><path class="cls-3" d="M113.11,65.57s6.31,6.16,6.82,20.17c0,0,2-10.52-1.48-19.78C118.45,66,114.94,64.42,113.11,65.57Z"/><path class="cls-4" d="M87.65,37.45s10-.67,17.5,11c0,0-1.7-9.57-10.19-13.18s-7.84-1.59-7.84-1.59"/><path class="cls-3" d="M103,61.42s2.73-2.29,2.91-3.16c0,0-1.54,5.75-2.24,6.33"/><path class="cls-5" d="M118.88,48.3s18.62-4.53,24-15.35c0,0-5.66,15.89-20.27,21.87l-4.77-4.53"/><path class="cls-5" d="M102.09,37.76s12.54,9.49,13,23.66l2.82,2.77L123.49,57l-6.67-8.5-3.71-9.34-10.67-3.84h-2"/><path class="cls-3" d="M102.28,93.74a9,9,0,0,1-1.69-2.67c-.32-1.14-.83-6.4-.25-7.22s4.36-3.07,7.14-1.71l-1.73-2.4-6.62,1.91-1.72,4.09,1,5.59L101.1,94"/><path class="cls-5" d="M119.67,88.09s7.56,6.75-2.18,7.83c0,0,1.24,2.51,2.53,2.7,0,0,0,4.77-8.73,3.63C97.41,100.43,90,87.54,90,87.54L93.81,98.9l9.13,6.9s6.91,2.94,7.2,2.94,10.38-4.11,10.38-4.11l3.66-2.67,1.14-5.63,2.77-6.12L122.55,82l-2-.72"/><path class="cls-5" d="M87.93,56.54s5.4,0,5.78,2.35-.07,5.63,4.74,7.73-2.57,8.82-2.57,8.82,4.14-.54,5.47-2.89c0,0-.73,7.25-3.94,10l7.08-3.15-.94-9.86-1.11-5L96.21,61l-.33-4.45S90.74,55.54,87.93,56.54Z"/><path class="cls-2" d="M105.72,95.92s-4.39-.38-6.49-2.39-3-6.68-2.77-9.36,1.08-3.46,3.63-4.39,3.1-2.74,3.1-5.11c0-.76-.81-6.83-.81-6.83l-1.72,2.87a16.92,16.92,0,0,0,.7-3.44c0-1.15-.12-2.55-.12-2.55l-6.08-3.15-.1-4.23a15.89,15.89,0,0,0-7.13-.8s5-1.78,7.07-1.72,3.66.23,3.66.23,3.63,4.45,4.74,7.16c0,0,2.48-2.52,2.55-4a19.32,19.32,0,0,1-1,7c-1.28,3.44.73,11.65,1.06,12.67s2.76,2.68,3,5.67c0,0-2-2.8-4.45-2.29s-5,.63-5.35,2.23-.07,7,1,8.27A21.36,21.36,0,0,0,105.72,95.92Z"/><polygon class="cls-6" points="97.23 57.34 97 60.58 101.75 63.1 97.23 57.34"/><path class="cls-5" d="M105.25,90.67s1.41-1.84,4.2,0c0,0-2.94-4.71-4-4S103.27,89.5,105.25,90.67Z"/><path class="cls-2" d="M106.19,88.33c1.23,0,3.26,2.34,3.26,2.34-.91-5.49-3.72-5.4-4.63-5.45s-2,1.24-1.86,3.15a2.84,2.84,0,0,0,2.29,2.3C104.25,89.43,105,88.33,106.19,88.33Z"/><path class="cls-5" d="M74.69,59.73l-2,5.84s-11.44,10-16.42,14.54c0,0,21.94,2.42,33.18,15.81l.5-2.75-18.1-15-2-5.06,5.35-3.34a37.11,37.11,0,0,0,1.43-4.64"/><path class="cls-7" d="M74,73.94c2.82,1.1,7.41,5.52,7.69,5.79a68.93,68.93,0,0,0-7.23-4.36L73.81,77c-2-1.18-3.28-1.84-3.28-1.84Z"/><path class="cls-7" d="M81.67,79.75A45.84,45.84,0,0,0,76,72.88l1.68-4c.66.9,1.28,1.8,1.89,2.69l-1.21,1.73Z"/><path class="cls-5" d="M83.62,58.48C43.94,44.24,19.93,71,19.93,71c-.85-2.53-1.61-5.15-2.27-7.84-.09-.34-.17-.69-.25-1l-.24-1c-.24-1-.46-2.08-.67-3.14-.07-.35-.14-.71-.2-1.06s-.14-.71-.2-1.07-.13-.71-.18-1.07-.12-.72-.18-1.08-.09-.56-.13-.84l9.53-5.32,20.44-8.4s0,6.69,7.45,7.64c7,.9,28,10.52,30.38,11.62Z"/><path class="cls-5" d="M58.41,38.58s6,5.51,11,6.53S77.22,41,77.22,41s-1.14,4.41-2.67,5.17c0,0,3.5.35,7.1-10.84l3.83.66S84.1,48.29,75.31,53.76L57.73,49.31l-4.44-9.43"/><path class="cls-8" d="M60.45,127.18h0l-2.67-.81A72.79,72.79,0,0,1,32.3,112.79l0,0a71.12,71.12,0,0,1-8.8-8.73l-.95-1.14A89.42,89.42,0,0,1,6.9,73q-1.19-3.81-2.12-7.78C22.47,118.58,60.45,127.18,60.45,127.18Z"/><path class="cls-8" d="M60.45,1.15h0C20.94,8,3.13,23.08,1.45,24.49L4.14,22C11.6,15,23.26,9.41,38.81,5.32a161.9,161.9,0,0,1,20.57-4Z"/><path class="cls-4" d="M142.92,33s-5.24,10.07-25,10.5"/><path class="cls-2" d="M147,27.51a49.34,49.34,0,0,1-30.59,12.13,13.77,13.77,0,0,1-2.13-2.45c-.29-.77-9.93-3.92-12.51-4.59s-3.15,1-3.15,1a43.92,43.92,0,0,0-7-3.86c13.66-9.41,36.33-12.25,36.33-12.25a78.64,78.64,0,0,0-32.32-5.21l-.82,0-.51,0h-.14l-.9.08-1.07.11-.32,0-1.12.14h-.1l-1.15.16L88,13.13c-.2,0-.4.06-.6.11l-.13,0-.43.08-.93.18-.76.17H85.1l-.24.05-.07,0-.54.12-1,.25-.87.23c-.84.22-1.66.46-2.47.7A69.6,69.6,0,0,0,54.31,29.46C38.16,32.21,23.47,40.29,14.75,46c0,.38.07.75.12,1.12s.06.66.1,1c.09.81.19,1.62.3,2.42s.19,1.42.3,2.12a1.87,1.87,0,0,0,0,.25c0,.28.08.56.13.84s.11.72.18,1.08.11.72.18,1.07.13.71.2,1.07.13.71.2,1.06c.21,1.06.43,2.11.67,3.14l.24,1c.08.34.16.69.25,1a59.56,59.56,0,0,1,23.19-18c-4.59,3.52-12,11.38-12,11.38,28.63-9,52,.74,54.53,1.84l.21.1h0c-1-1.37-5.09-6.65-5.09-6.65,7-4.64,8.93-12.35,9.48-16.55,1.73.06,12.4.91,17.13,13.18,0,0-1-8-3.06-10.7s7.07,1.91,9.94,4.11,1.52,4.87,2.29,6.59,5.35,7.64,5.35,7.64-2.49,5.15-3.44,5.73c0,0-3-.86-4.39-2.38a19.88,19.88,0,0,0,2.47,4A9.81,9.81,0,0,1,112,62.08a8.9,8.9,0,0,0,1.62,2.13,3.88,3.88,0,0,0-3.34,2.35c.16-.09,3.89-2.27,5.73,0s5.21,11.3,3.69,21.52c0,0,1.1-1,1.79-4.08,0,0,1.15.9,2.3,2s2.31,2.44,2.31,3.3c0,1.72-.86,6.3-5.16,7.26a13.8,13.8,0,0,0,3.44.86s1.43,4-6.31,5.06l1.24.57s-1,2.29-2,2.58-8,.19-10.31-1a29.73,29.73,0,0,1-6.21-4.11s-5.25-1-5.35-1.62c0,0-3.53-20.54-20.72-39.25l-.29,6.49A69.4,69.4,0,0,0,63.51,77.93s14.35,1.61,25.08,16.72a46.89,46.89,0,0,1,2.9,4.59,2.82,2.82,0,0,1,.21.38l.16.3c.07.13.15.26.21.39.47.87.92,1.78,1.35,2.7h0c1.15.27,2.25.51,3.27.73h0l.6.13c.85.18,1.58.32,1.86.34a1.16,1.16,0,0,1,.37.14h0a30.39,30.39,0,0,1,2.55,2.07,19.1,19.1,0,0,0,3.63,2.56c2.81,1.4,11,.7,11,.7a12.92,12.92,0,0,0,3.88-4,7.13,7.13,0,0,0,2.1-.32c.83-.32,4.33-3.31,4.59-4.45a29,29,0,0,0-.13-5s3-4.3,2.33-7.42S122,79.27,122,79.27c0-.29,0-.59,0-.9A64.16,64.16,0,0,0,120.06,64s2.19-5,3.43-7.06a1.49,1.49,0,0,0,.14-1C127.88,53.54,142.59,44.22,147,27.51ZM83.89,37.44C80.45,52,74.72,51.83,74.72,51.83s-9.17-4.33-13.88-9.68S58.16,34,58.16,34C80.58,8.28,120,17,120,17,90,19.51,77.07,38.2,77.07,38.2Zm38,15.33c-1.41-2-3.23-4.15-3.59-5.94a26.87,26.87,0,0,1-.45-3.38c.09,0,17.41-.86,25-10.5A48.6,48.6,0,0,1,121.92,52.77Z"/><path class="cls-9" d="M90,91.32C85.82,84.89,78.17,79.66,73.81,77c-2-1.18-3.28-1.84-3.28-1.84L74,73.94c2.82,1.1,7.41,5.52,7.69,5.79l0,0A45.84,45.84,0,0,0,76,72.88l1.68-4c.66.9,1.28,1.8,1.89,2.69A102.54,102.54,0,0,1,90,91.32Z"/></g></g></svg>